PathFileType	4	(X/Y/Z)	50_1_rein_44_p0_0-353.trc
DataRate	CameraRate	NumFrames	NumMarkers	Units	OrigDataRate	OrigDataStartFrame	OrigNumFrames
60.0	60.0	7	27	m	60.0	309	354
Frame#	Time	RHip			RKnee			RAnkle			RBigToe			RSmallToe			RHeel			LHip			LKnee			LAnkle			LBigToe			LSmallToe			LHeel			Neck			Head			Nose			RShoulder			RElbow			RWrist			RThumb			RIndex			RPinky			LShoulder			LElbow			LWrist			LThumb			LIndex			LPinky			
		X1	Y1	Z1	X2	Y2	Z2	X3	Y3	Z3	X4	Y4	Z4	X5	Y5	Z5	X6	Y6	Z6	X7	Y7	Z7	X8	Y8	Z8	X9	Y9	Z9	X10	Y10	Z10	X11	Y11	Z11	X12	Y12	Z12	X13	Y13	Z13	X14	Y14	Z14	X15	Y15	Z15	X16	Y16	Z16	X17	Y17	Z17	X18	Y18	Z18	X19	Y19	Z19	X20	Y20	Z20	X21	Y21	Z21	X22	Y22	Z22	X23	Y23	Z23	X24	Y24	Z24	X25	Y25	Z25	X26	Y26	Z26	X27	Y27	Z27	
309	5.15	0.2967916158042282	0.717639844037634	0.5138271689329408	0.30993563857188083	0.8771119878718776	0.936519255341416	0.3216361364307645	1.0186004969368117	1.348147030380352	0.266004478983452	0.8721176338679177	1.417821054391805	0.3449989870181478	0.8689783870988503	1.4152722723868723	0.29536869613829986	1.1052974485468836	1.3924668404205514	0.09599882316843673	0.7337916231426452	0.5243402759258544	0.09121366447320114	0.8546909729682837	0.9256936475629818	0.07450409268583637	0.9970769601193595	1.3371866296150956	0.09302474343422532	0.8467958475633834	1.3956216421392948	0.03663942704345864	0.873899391174896	1.3839199994239362	0.0946652837489396	1.0457649724481073	1.3938199467456123	0.20167023430325481	0.5914047943972989	-0.011567032946893407	0.19828386582743246	0.509489048559565	-0.23010710616903804	0.18833050271000054	0.43683121061023744	-0.09119560779722434	0.3355651915284027	0.5580836939691954	0.08281124041433881	0.35684794871149106	0.6098860991674948	0.34692791705936754	0.25277167919900084	0.5948848947544032	0.5718417468070081	0.17093719269727548	0.5863151080496088	0.6388648502840657	0.16274989639258172	0.6164737437366137	0.6644361607437548	0.18263232132621735	0.624556078845065	0.6811160694516596	0.0659214467166054	0.6490450143981815	0.06910313362705528	0.003465489949868547	0.6311799416075996	0.35292419786890106	0.11824590573426248	0.5788221751357945	0.5438996033839182	0.20470219431745595	0.5710205369848115	0.6063384048489967	0.2013042259668549	0.5657856827788362	0.640668108743541	0.17157445593805826	0.6082384366558129	0.6752108448612593
310	5.166666666666667	0.2976679426795169	0.7197523226068868	0.5215840334187363	0.31013219814820664	0.877633275130806	0.9368426178806462	0.3217207515472245	1.0186993018995252	1.3479983626219008	0.2659944651018901	0.8721080433643653	1.4177967791777328	0.3450290078745045	0.8685855480954142	1.4149811819968852	0.29643804540154634	1.1036449990136041	1.3873200061953412	0.09666951299527327	0.7366165177238394	0.528913733607209	0.09118246487264293	0.8725491725045526	0.9285808856191524	0.07950722012624004	1.0117682660104137	1.3369122257643344	0.0940362679148093	0.8454971707261222	1.3918578294845785	0.03684001426856661	0.8744959473294074	1.3839774560987808	0.09503262177298144	1.045950743894846	1.3936066232533744	0.20165638818423218	0.591432949184824	-0.01156339047253057	0.1982986369212767	0.5094001445184195	-0.23009448023185652	0.18841487198019322	0.4369751153911052	-0.09122358604376161	0.33559466256009557	0.5580720802924894	0.08268952441484675	0.36134179764785784	0.6102291399270366	0.34677542360192914	0.2525912675613197	0.5950779070903298	0.5677727696204488	0.17097617435473517	0.5865608599663282	0.6350740943854124	0.1634997239954366	0.6155990356256841	0.6615739114078445	0.1867661885795583	0.6245462867644472	0.680858637267467	0.06595264080951828	0.6489923721928658	0.06907875745498575	0.006502911719116719	0.6440995099326469	0.3527433186190294	0.12271979454327277	0.580582776164104	0.5476531790627923	0.2057818566655508	0.572417981690306	0.6065225829915871	0.2063321088878226	0.5797999529618614	0.645580578934985	0.172051222637614	0.6082644655068231	0.6750675973526964
311	5.183333333333334	0.296690176830108	0.7174589735811624	0.5139337945301582	0.3148620043443126	0.89158091058106	0.9384829580332649	0.3217497420426823	1.0187161588581142	1.3479876961142683	0.2660621000480179	0.872372907347065	1.4177965724835304	0.3451851105517273	0.8690288291921929	1.4150313329908213	0.2956012585942562	1.1057701525154742	1.392346258702329	0.09659736006819747	0.736694359354332	0.5287846161340555	0.09648175902998786	0.85894907085848	0.9308868100351843	0.07575320106150916	0.9955927053287614	1.3325477863163508	0.09305546515423567	0.8466215761852869	1.3956012977153334	0.03705677348065902	0.8736376985821642	1.3876410963500048	0.09477248595721266	1.0454506593409125	1.3935555556416592	0.20164259909986948	0.5912571178674051	-0.011589838915640823	0.1983590772762867	0.5093170340305576	-0.23012604996443886	0.18841734112115105	0.43684086400274225	-0.09115896349022419	0.33559833133921224	0.5579034508971022	0.08264767425891159	0.36144682030494574	0.610525460480991	0.34668990519374326	0.2525954561482489	0.5951536412387863	0.5677611744538856	0.1709177770917724	0.5870102108713809	0.6348363604186329	0.15915622364608098	0.6295061973553633	0.6595587972551461	0.18594049646246819	0.6225266168163003	0.6766344337764456	0.06595388994216082	0.6489730601476709	0.06911228286278623	0.010927580385781212	0.645491004581544	0.3527275559549882	0.1226159079092269	0.580442958965875	0.547648835939698	0.20540160171647176	0.5712494875849932	0.6060152760243928	0.20601031978647105	0.5798720790883933	0.6421154626979202	0.17200638530330217	0.6077813481989572	0.6747903199803734
312	5.2	0.2930256336199572	0.718130736864355	0.5181004812149554	0.3144508538797827	0.8921612018676803	0.9393594951274292	0.32069115384246655	1.0158385448895382	1.3426633660036238	0.2659036531190492	0.8719281377073843	1.4177555769708745	0.34500245002777014	0.8687730001627	1.4151257435503701	0.295404965647956	1.1056783704689068	1.3924758159061716	0.08815457300844617	0.7503515774614817	0.5298087872601481	0.0864611594866763	0.8712795550238345	0.9286969379881302	0.07736257330034244	1.010454337275941	1.336037448134047	0.09309529652894077	0.8469166442401224	1.3957053195519131	0.0365733804842943	0.8742128008429167	1.3840406246217878	0.09742990392146432	1.0584654542826635	1.39358429369025	0.20156456752866456	0.5914516179264355	-0.011573139449572953	0.19816505622168615	0.5094126983542506	-0.22991866430163066	0.19226007800338057	0.4380635184119794	-0.09139218454347676	0.3355896018931901	0.5578732593349295	0.082709091195126	0.3613215763298759	0.6111544113053989	0.3500622195785974	0.25274054569390664	0.5949812455829745	0.5717331772987372	0.1784863723098729	0.5719907841419543	0.6408183822695073	0.16676534790111358	0.6027722400312783	0.6631444207935219	0.18245016644774165	0.6241237604377861	0.6809550493588736	0.0662199277256945	0.6484243046966404	0.06581847395043383	0.010543231529522794	0.6465135608550556	0.35638798725758647	0.12281713483936539	0.5807704372384294	0.5476177357579967	0.20572761819074514	0.5705703790662939	0.6059596301411072	0.2014192106675512	0.5647525425075061	0.640605411988083	0.16828236843274025	0.6074580526330202	0.6784797298825987
313	5.216666666666667	0.29658172236708485	0.7175154260636313	0.5140298017949576	0.3145851783865689	0.8922372716563982	0.9392618614937499	0.32179031768316213	1.018943395781264	1.347972430304466	0.26567876313683286	0.8724991281308131	1.4137190797796721	0.34473454526877473	0.8692736338389101	1.4107495631522884	0.29545792493079287	1.1057184254533488	1.392426783090505	0.08758646479769754	0.747696639540614	0.5248570008539256	0.0868034511491694	0.8712076467791631	0.928358341875749	0.07850316506451702	1.0088125967483352	1.331352895747344	0.09405233808338921	0.8452424506245305	1.391817496222374	0.03665897822403126	0.8743062819423928	1.3839908268121541	0.09746888793923102	1.058474129799428	1.3935028732587718	0.20154762681632096	0.5914993404243818	-0.011557538244885793	0.20163829139455514	0.5210975267476753	-0.23253049918007038	0.19237850814330737	0.43806385471203685	-0.09134703175724405	0.3356314652822381	0.5579643978432275	0.08271544131803624	0.361309548807391	0.6112672328150798	0.350061706109983	0.25203828821439395	0.592969135944832	0.5635769026872454	0.17850017794907547	0.5725023975909961	0.6373163028492919	0.16743494383830232	0.6021743994915352	0.6601263802046164	0.18242537757300342	0.6242131095535349	0.6771814928084193	0.06623784042129971	0.6484738868410596	0.06581536063432077	0.014751510269195257	0.6326096737965985	0.3565524195433072	0.12281993933991438	0.5805312978106255	0.547677603811127	0.20559450871182952	0.5709926807605092	0.6060369062779916	0.20608429263460598	0.579049519225919	0.6455929012502778	0.172353046836441	0.6100464849310957	0.6793606643558294
314	5.233333333333333	0.30138426351642084	0.730612138575339	0.5180445957722148	0.31484380460005484	0.8918138994207573	0.9386090489028064	0.32182522961812704	1.0187544412501648	1.3479833809737298	0.26590314379974356	0.871773947139483	1.4177522940426566	0.344931711938017	0.8682737741617049	1.4149727393431693	0.2955325939222261	1.105665334702227	1.3924850091241887	0.09181979578440144	0.7325470453869343	0.5242562225629137	0.09128304118881221	0.8547031973993605	0.9255842283385453	0.07825204039147014	1.0135091146624813	1.3416619561514642	0.09312627912763137	0.8467673661105809	1.3956481010610116	0.03677895100221144	0.874186989776106	1.3839097609347801	0.09439744117722713	1.0464987662763654	1.389677206212944	0.20161511097042495	0.5915859100055716	-0.01154766594350254	0.20472993374389115	0.5083880407891952	-0.22985976853813322	0.19216728605176947	0.43655040930877365	-0.09440045036493498	0.3396794609923708	0.5583084439738943	0.08259987126563213	0.36134145145067664	0.6110954915894296	0.3500969875438443	0.25260952077493803	0.5949705558024122	0.5677134641591336	0.17847856034819545	0.5724093124509945	0.6374339347798871	0.167398080300853	0.6023227422844646	0.6600664003169471	0.18309224972509422	0.6230127737623581	0.6773974979774728	0.06590159369589428	0.6490649062526039	0.06918345403899048	0.018937374269564017	0.6352921816156919	0.35986705176731726	0.1222432317920439	0.5814289988386487	0.5513797388935845	0.20554510767184134	0.5700508082274182	0.6057011840500782	0.20533192400834932	0.5765339303419502	0.637951834121003	0.1723361766757704	0.6095457404750777	0.679116117434835
315	5.25	0.30217299790244756	0.732884822534909	0.522169176950352	0.31605869680258664	0.8953750044984409	0.9437782067139471	0.32178382684494156	1.018634379195914	1.3479589010679416	0.2657546565593844	0.8726603027232892	1.4137766593713832	0.3447197356266191	0.8691119926270774	1.4107708200871063	0.29554110281749046	1.1055062575079007	1.3923916703960857	0.09241046802254557	0.7354041364825721	0.5290043412043677	0.09142845243182192	0.8543793807945774	0.9254410251344137	0.07819457009690119	1.0135733095828592	1.3416996879211527	0.09312532415904695	0.846775999794094	1.3956830180972266	0.03671812417420573	0.8743781247287987	1.3840107928320848	0.09432610292120232	1.047128559245665	1.3899513348386017	0.20161443018653927	0.5913204053543036	-0.011536416180181901	0.20471610507073967	0.5083407987572826	-0.2297338444436907	0.18901654481010177	0.44886748166380086	-0.09640187933690894	0.3394745088766423	0.558918393486656	0.0860394870459629	0.36126065979690664	0.6112492305017977	0.35014423670113987	0.2526332574536786	0.5950276921837977	0.5678229169546403	0.1748864415798585	0.5738202161382137	0.6345630081157172	0.16741076378560105	0.6019483496372443	0.6603639013702535	0.18243510174117153	0.623849226700571	0.6806965662465981	0.06589942421365234	0.6490346339324216	0.06923518266636522	0.023759572681902298	0.6357892066579823	0.3564248381991677	0.1228704802778039	0.5804628862527322	0.5475758153161533	0.20507852777183222	0.5692830807247711	0.6055497215887358	0.20513905605181426	0.5757335294919859	0.6413115194547251	0.16794150758671325	0.6070174649371756	0.674907145978348
